<svg width="70" height="70" viewBox="0 0 70 70" fill="none" xmlns="http://www.w3.org/2000/svg">
<path d="M27.7084 43.75V48.125C27.7084 53.7629 23.1379 58.3333 17.5 58.3333C11.8621 58.3333 7.29169 53.7629 7.29169 48.125V27.7083" stroke="#0D4DC9" stroke-width="4" stroke-linecap="round" stroke-linejoin="round"/>
<path d="M42.2917 43.75V48.125C42.2917 53.7629 46.8621 58.3333 52.5 58.3333C58.1379 58.3333 62.7084 53.7629 62.7084 48.125V27.7083" stroke="#0D4DC9" stroke-width="4" stroke-linecap="round" stroke-linejoin="round"/>
<path d="M46.6667 11.6667H23.3334C14.4738 11.6667 7.29169 18.8488 7.29169 27.7084C7.29169 36.5679 14.4738 43.75 23.3334 43.75H46.6667C55.5263 43.75 62.7084 36.5679 62.7084 27.7084C62.7084 18.8488 55.5263 11.6667 46.6667 11.6667Z" stroke="#0D4DC9" stroke-width="4"/>
<path d="M30.625 27.7083H18.9583" stroke="#0D4DC9" stroke-width="4" stroke-linecap="round" stroke-linejoin="round"/>
<path d="M24.7917 21.875V33.5417" stroke="#0D4DC9" stroke-width="4" stroke-linecap="round" stroke-linejoin="round"/>
<path d="M52.5 24.7917C52.5 23.1808 51.1942 21.875 49.5834 21.875C47.9725 21.875 46.6667 23.1808 46.6667 24.7917C46.6667 26.4025 47.9725 27.7083 49.5834 27.7083C51.1942 27.7083 52.5 26.4025 52.5 24.7917Z" fill="#0D4DC9"/>
<path d="M46.6666 32.0834C46.6666 30.4725 45.3608 29.1667 43.75 29.1667C42.1391 29.1667 40.8333 30.4725 40.8333 32.0834C40.8333 33.6942 42.1391 35 43.75 35C45.3608 35 46.6666 33.6942 46.6666 32.0834Z" fill="#0D4DC9"/>
</svg>
