<svg width="70" height="70" viewBox="0 0 70 70" fill="none" xmlns="http://www.w3.org/2000/svg">
<path d="M27.7083 29.1667C33.3462 29.1667 37.9167 24.5962 37.9167 18.9583C37.9167 13.3204 33.3462 8.75 27.7083 8.75C22.0704 8.75 17.5 13.3204 17.5 18.9583C17.5 24.5962 22.0704 29.1667 27.7083 29.1667Z" stroke="#0D4DC9" stroke-width="4" stroke-linecap="round" stroke-linejoin="round"/>
<path d="M47.5529 10.2083C50.5174 11.9946 52.5001 15.245 52.5001 18.9583C52.5001 22.6717 50.5174 25.922 47.5529 27.7083" stroke="#0D4DC9" stroke-width="4" stroke-linecap="round" stroke-linejoin="round"/>
<path d="M5.83334 59.5V61.25H49.5833V59.5C49.5833 52.9661 49.5833 49.6991 48.3118 47.2035C47.1933 45.0082 45.4084 43.2234 43.2132 42.1048C40.7176 40.8333 37.4506 40.8333 30.9167 40.8333H24.5C17.9661 40.8333 14.6991 40.8333 12.2035 42.1048C10.0082 43.2234 8.22345 45.0082 7.10494 47.2035C5.83334 49.6991 5.83334 52.9661 5.83334 59.5Z" stroke="#0D4DC9" stroke-width="4" stroke-linecap="round" stroke-linejoin="round"/>
<path d="M64.1665 61.2502V59.5002C64.1665 52.9662 64.1665 49.6993 62.895 47.2036C61.7765 45.0084 59.9916 43.2237 57.7964 42.1052" stroke="#0D4DC9" stroke-width="4" stroke-linecap="round" stroke-linejoin="round"/>
</svg>
